# xmcd
# 
# Track frame offsets:
#     150
#     19952
#     36392
#     56194
# 
# Disc length: 967
# 
# Revision: 0
# Processed by: cddbd v1.5.2PL0 Copyright (c) Steve Scherf et al.
# Submitted via: fre:ac v1.0.31
# 
DISCID=3503c504
DTITLE=AKB48 - 好きだ 好きだ 好きだ
DYEAR=2019
DGENRE=JPop
TTITLE0=サステナブル
TTITLE1=好きだ 好きだ 好きだ
TTITLE2=サステナブル off vocal ver.
TTITLE3=好きだ 好きだ 好きだ off vocal ver.
EXTD=
EXTT0=
EXTT1=
EXTT2=
EXTT3=
PLAYORDER=
